<svg xmlns="http://www.w3.org/2000/svg" width="32" height="32" viewBox="0 0 64 64"><g fill="none" fill-rule="evenodd"><circle cx="32" cy="32" r="26" fill="#ea9215"></circle><svg xmlns="http://www.w3.org/2000/svg" xmlns:xlink="http://www.w3.org/1999/xlink" width="26" height="26" x="19" y="10" fill="#eee" viewBox="0 0 24 24"><path d="M5.438 2c-.512 0-1.02.203-1.407.594L2.594 4.03a1.987 1.987 0 0 0 0 2.813l2.125 2.125C3.977 10.46 3.207 12.016 3 12.375c-.469.813-1 1.617-1 2.625 0 1.473.805 2.746 2 3.438.184.105 4.188 2.906 4.188 2.906h.03C8.896 21.75 9.66 22 10.5 22h3c.832 0 1.613-.223 2.281-.625.38-.227 4.031-2.664 5.219-3.75.688-.633 1-1.621 1-2.625s-.414-1.754-1-2.625c-.277-.43-1.023-1.96-1.719-3.406l2.125-2.125a1.987 1.987 0 0 0 0-2.813L19.97 2.594a1.987 1.987 0 0 0-2.813 0l-1.5 1.5A2.2 2.2 0 0 0 15 4H9a2.8 2.8 0 0 0-.656.094l-1.5-1.5A1.98 1.98 0 0 0 5.437 2M9.5 10a1.5 1.5 0 1 1 0 3 1.5 1.5 0 0 1 0-3m5 0a1.5 1.5 0 1 1 0 3 1.5 1.5 0 0 1 0-3M12 13.813c.395 0 .79.054 1 .187.95.59 3 2.883 3 4 0 .559-1.328 1.781-2 2-.953.309-3.047.309-4 0-.672-.219-2-1.441-2-2 0-1.117 2.05-3.41 3-4 .21-.133.605-.187 1-.187M11 17c-.363 0-.57.43-.312.688l1.03 1.218c.16.16.403.16.563 0l1.031-1.218C13.57 17.43 13.364 17 13 17Z"></path></svg><text fill="#eee" data-text-alignment="C" font-family="Fira Mono" font-size="14" font-weight="700" letter-spacing="0.81" transform="translate(-4 33)"><tspan x="17.07" y="17">XCYY</tspan></text><circle cx="32" cy="32" r="30" stroke="#ea9215" stroke-width="2"></circle></g></svg>